<svg xmlns="http://www.w3.org/2000/svg" width="1200" height="630" viewBox="0 0 1200 630" role="img" aria-label="Top Words – İngilizce ve Almanca sınav kelimeleri (UDSP, YDS, YÖKDİL, ÜDS, TOEFL, telc, CEFR)">
  <defs>
    <radialGradient id="bg" cx="50%" cy="-10%" r="90%">
      <stop offset="0" stop-color="#1b2a4a" />
      <stop offset="0.6" stop-color="#0f172a" />
      <stop offset="1" stop-color="#0b1120" />
    </radialGradient>
    <linearGradient id="accent" x1="0" y1="0" x2="1" y2="0">
      <stop offset="0" stop-color="#818cf8" />
      <stop offset="1" stop-color="#22d3ee" />
    </linearGradient>
  </defs>
  <rect width="1200" height="630" fill="url(#bg)" />

  <!-- brand row -->
  <g transform="translate(80,86)">
    <rect x="0" y="-2" width="56" height="56" rx="14" fill="url(#accent)" />
    <text x="28" y="38" text-anchor="middle" font-family="Segoe UI, Arial, sans-serif" font-size="34" font-weight="800" fill="#0f172a">T</text>
    <text x="76" y="38" font-family="Segoe UI, Arial, sans-serif" font-size="30" font-weight="700" fill="#e2e8f0" letter-spacing="1">Top Words</text>
  </g>

  <!-- headline -->
  <text x="80" y="250" font-family="Segoe UI, Arial, sans-serif" font-size="70" font-weight="800" fill="#ffffff">İngilizce &amp; Almanca</text>
  <text x="80" y="330" font-family="Segoe UI, Arial, sans-serif" font-size="70" font-weight="800" fill="url(#accent)">Kelime Ezberleme</text>

  <!-- subline -->
  <text x="80" y="404" font-family="Segoe UI, Arial, sans-serif" font-size="34" font-weight="500" fill="#94a3b8">Phrasal Verbs · Partikelverben · A1–C2 · CEFR</text>

  <!-- exam chips -->
  <g font-family="Segoe UI, Arial, sans-serif" font-size="26" font-weight="600">
    <g transform="translate(80,470)">
      <rect width="135" height="56" rx="28" fill="rgba(99,102,241,0.18)" stroke="#6366f1" />
      <text x="67" y="37" text-anchor="middle" fill="#c7d2fe">UDSP</text>
    </g>
    <g transform="translate(231,470)">
      <rect width="120" height="56" rx="28" fill="rgba(99,102,241,0.18)" stroke="#6366f1" />
      <text x="60" y="37" text-anchor="middle" fill="#c7d2fe">YDS</text>
    </g>
    <g transform="translate(367,470)">
      <rect width="165" height="56" rx="28" fill="rgba(99,102,241,0.18)" stroke="#6366f1" />
      <text x="82" y="37" text-anchor="middle" fill="#c7d2fe">YÖKDİL</text>
    </g>
    <g transform="translate(548,470)">
      <rect width="110" height="56" rx="28" fill="rgba(99,102,241,0.18)" stroke="#6366f1" />
      <text x="55" y="37" text-anchor="middle" fill="#c7d2fe">ÜDS</text>
    </g>
    <g transform="translate(674,470)">
      <rect width="130" height="56" rx="28" fill="rgba(99,102,241,0.18)" stroke="#6366f1" />
      <text x="65" y="37" text-anchor="middle" fill="#c7d2fe">KPDS</text>
    </g>
    <g transform="translate(820,470)">
      <rect width="150" height="56" rx="28" fill="rgba(99,102,241,0.18)" stroke="#6366f1" />
      <text x="75" y="37" text-anchor="middle" fill="#c7d2fe">TOEFL</text>
    </g>
    <g transform="translate(986,470)">
      <rect width="120" height="56" rx="28" fill="rgba(34,211,238,0.16)" stroke="#22d3ee" />
      <text x="60" y="37" text-anchor="middle" fill="#a5f3fc">telc</text>
    </g>
  </g>

  <!-- decorative book on the right -->
  <g transform="translate(980,150)" opacity="0.9">
    <rect x="0" y="0" width="70" height="150" rx="8" fill="#6366f1" />
    <rect x="78" y="0" width="70" height="150" rx="8" fill="#22d3ee" />
  </g>

  <text x="80" y="588" font-family="Segoe UI, Arial, sans-serif" font-size="24" fill="#64748b">Türk öğrenciler için ücretsiz kelime uygulaması · udsp.vercel.app</text>
</svg>
